<?xml version="1.0" standalone="no"?>
<!DOCTYPE svg PUBLIC "-//W3C//DTD SVG 20010904//EN"
 "http://www.w3.org/TR/2001/REC-SVG-20010904/DTD/svg10.dtd">
<svg version="1.0" xmlns="http://www.w3.org/2000/svg"
 width="50.000000pt" height="50.000000pt" viewBox="0 0 50.000000 50.000000"
 preserveAspectRatio="xMidYMid meet">

<g transform="translate(0.000000,50.000000) scale(0.100000,-0.100000)"
fill="#dddddd" stroke="none">
<path d="M200 489 c-60 -12 -118 -54 -155 -114 -27 -43 -30 -57 -30 -125 0
-68 3 -82 30 -126 43 -68 108 -107 190 -112 78 -5 126 10 177 56 188 170 37
469 -212 421z m70 -110 c0 -81 -2 -90 -17 -87 -15 3 -19 16 -21 77 -3 83 1
101 23 101 12 0 15 -16 15 -91z m-53 24 c2 -6 -9 -19 -26 -28 -56 -29 -86 -99
-69 -162 40 -145 251 -125 266 25 5 60 -14 102 -63 132 -38 24 -46 50 -15 50
27 0 90 -58 106 -97 57 -135 -70 -285 -207 -244 -113 34 -166 158 -110 256 35
64 106 104 118 68z"/>
</g>
</svg>
